<?xml version="1.0" encoding="utf-8"?>
<!-- Generator: Adobe Illustrator 24.1.0, SVG Export Plug-In . SVG Version: 6.00 Build 0)  -->
<svg version="1.1" xmlns="http://www.w3.org/2000/svg" xmlns:xlink="http://www.w3.org/1999/xlink" x="0px" y="0px"
	 viewBox="0 0 89 56.6" style="enable-background:new 0 0 89 56.6;" xml:space="preserve">
<g id="Layer_2">
</g>
<g id="Layer_1">
	<path d="M60.1,2c-5.5,0-10.9,1.7-15.4,4.8l-0.1,0l-0.1,0c-4.6-3.3-10.1-5.1-15.7-5.1c-14.9,0-27,12.1-27,27c0,14.9,12.1,27,27,27
		c5.6,0,10.8-1.7,15.4-4.8l0.1,0l0.1,0c4.6,3.3,10.1,5.1,15.7,5.1c14.9,0,27-12.1,27-27C87.1,14.1,75,2,60.1,2z M39.4,39.7
		c-0.3-1.4-0.6-2.9-0.9-4.3h11.9c-0.3,1.5-0.6,2.9-0.9,4.3H39.4z M46.8,41.2c-0.7,1.4-1.6,2.7-2.5,3.8c-0.9-1.2-1.7-2.5-2.4-3.8
		H46.8z M37.6,27.3h13.8c0,0.6,0,1.1,0,1.7c0,1.5,0,3.1-0.1,4.6H37.7c-0.1-1.3-0.1-2.7-0.1-4.1C37.6,28.8,37.6,28.1,37.6,27.3z
		 M49.8,19c0.4,2.1,0.7,4.3,1,6.5H38.3c0.3-2.2,0.6-4.4,1-6.5H49.8z M41.8,17.3c0.8-1.7,1.8-3.3,2.8-4.7c1,1.5,1.9,3,2.7,4.7H41.8z
		 M28.1,50.1c-12,0-21.7-9.7-21.7-21.7S16.1,6.7,28.1,6.7c4.2,0,8.3,1.2,11.8,3.5c0,0,0,0-0.1,0.1c-0.1,0.1-0.2,0.2-0.3,0.4
		c-0.2,0.2-0.4,0.4-0.6,0.7c-0.1,0.1-0.2,0.3-0.4,0.4c-0.2,0.2-0.4,0.4-0.5,0.6c-0.1,0.1-0.2,0.3-0.3,0.4c-0.2,0.2-0.3,0.4-0.5,0.7
		c-0.1,0.2-0.2,0.3-0.3,0.5c-0.2,0.2-0.3,0.5-0.5,0.7c-0.1,0.2-0.2,0.3-0.3,0.5c-0.2,0.2-0.3,0.5-0.4,0.8c-0.1,0.1-0.2,0.3-0.2,0.4
		c-0.2,0.3-0.3,0.6-0.5,0.9c0,0.1-0.1,0.2-0.1,0.3c-0.2,0.4-0.4,0.8-0.6,1.2c0,0.1-0.1,0.2-0.1,0.3c-0.1,0.3-0.3,0.6-0.4,1
		c-0.1,0.2-0.1,0.3-0.2,0.5c-0.1,0.3-0.2,0.6-0.3,0.8c-0.1,0.2-0.1,0.3-0.1,0.5c-0.1,0.3-0.1,0.5-0.2,0.8c0,0.2-0.1,0.4-0.1,0.5
		c-0.1,0.3-0.1,0.5-0.2,0.8c0,0.2-0.1,0.4-0.1,0.6c0,0.3-0.1,0.6-0.1,0.8c0,0.2,0,0.4-0.1,0.5c0,0.3-0.1,0.6-0.1,0.9
		c0,0.2,0,0.3,0,0.5c0,0.5,0,0.9,0,1.4c0,0.5,0,0.9,0,1.4c0,0.2,0,0.3,0,0.4c0,0.3,0,0.6,0.1,0.9c0,0.2,0,0.4,0.1,0.5
		c0,0.3,0.1,0.6,0.1,0.8c0,0.2,0.1,0.4,0.1,0.5c0,0.3,0.1,0.5,0.2,0.8c0,0.2,0.1,0.4,0.1,0.5c0.1,0.3,0.1,0.5,0.2,0.8
		c0,0.2,0.1,0.3,0.1,0.5c0.1,0.3,0.2,0.5,0.3,0.8c0.1,0.2,0.1,0.3,0.2,0.5c0.1,0.3,0.2,0.7,0.4,1c0,0.1,0.1,0.2,0.1,0.3
		c0.2,0.4,0.3,0.8,0.5,1.2c0.1,0.1,0.1,0.2,0.2,0.3c0.1,0.3,0.3,0.6,0.4,0.9c0.1,0.1,0.2,0.3,0.2,0.4c0.1,0.2,0.3,0.5,0.4,0.7
		c0.1,0.2,0.2,0.3,0.3,0.5c0.1,0.2,0.3,0.5,0.4,0.7c0.1,0.2,0.2,0.3,0.3,0.5c0.2,0.2,0.3,0.4,0.5,0.6c0.1,0.1,0.2,0.3,0.3,0.4
		c0.2,0.2,0.4,0.4,0.5,0.6c0.1,0.1,0.2,0.3,0.3,0.4c0.2,0.2,0.4,0.5,0.6,0.7c0.1,0.1,0.2,0.2,0.3,0.3c0,0,0,0,0,0.1
		C36.1,49,32.2,50.1,28.1,50.1z"/>
</g>
</svg>
