<?xml version="1.0" encoding="utf-8"?>
<!-- Generator: Adobe Illustrator 24.1.0, SVG Export Plug-In . SVG Version: 6.00 Build 0)  -->
<svg version="1.1"
	 id="Layer_1" xmlns:cc="http://creativecommons.org/ns#" xmlns:dc="http://purl.org/dc/elements/1.1/" xmlns:inkscape="http://www.inkscape.org/namespaces/inkscape" xmlns:rdf="http://www.w3.org/1999/02/22-rdf-syntax-ns#" xmlns:sodipodi="http://sodipodi.sourceforge.net/DTD/sodipodi-0.dtd" xmlns:svg="http://www.w3.org/2000/svg"
	 xmlns="http://www.w3.org/2000/svg" xmlns:xlink="http://www.w3.org/1999/xlink" x="0px" y="0px" viewBox="0 0 100 100"
	 style="enable-background:new 0 0 100 100;" xml:space="preserve">
<path d="M58.3,22.6l12.9-1.1c0.9-0.1,1.8,0.8,1.9,1.9l4.9,31.5c0.2,1.1-0.4,2.1-1.3,2.2l-12.9,1.1c-0.9,0.1-1.8-0.8-1.9-1.9L57,24.7
	C56.8,23.6,57.4,22.6,58.3,22.6z"/>
<path d="M69.6,12.7c-0.2,5.3-5,9.4-10.7,9.2c-5.7-0.2-10.2-4.6-10-9.9c0.2-5.3,5-9.4,10.7-9.2C65.3,3,69.8,7.4,69.6,12.7z"/>
<path d="M59.6,23.6c-1-0.5-2.3-0.1-2.8,0.8l-8.5,14.9l0,0.1c-0.8,1.5-0.2,3.4,1.5,4.2c1.6,0.8,3.7,0.2,4.6-1.2c0,0,0-0.1,0-0.1
	l8.5-14.9c0.5-0.9,0.2-2.1-0.9-2.6C62,24.8,59.6,23.6,59.6,23.6z"/>
<path d="M51.5,42.1c0.7-1.5,0.1-3.2-1.4-3.9c0,0-0.1,0-0.1,0l-14.8-6.4c-1-0.4-2.1,0-2.5,0.9l-1.1,2.2c-0.4,0.9,0,2,0.9,2.4
	l14.8,6.4c0,0,0.1,0,0.1,0C49,44.2,50.8,43.5,51.5,42.1z"/>
<path d="M70.4,51.2c-1.1-0.5-2.4-0.1-2.9,0.9l-8,15.5l0,0c-1.4,2.7-0.2,5.8,2.7,7.1c2.9,1.3,6.3,0.2,7.7-2.5c0,0,0,0,0,0l8-15.5
	c0.5-1,0.1-2.2-1-2.7C76.8,54.1,70.4,51.2,70.4,51.2z"/>
<path d="M64.2,66.2c-3,0.1-5.4,2.6-5.2,5.4l1.3,24.5c0.1,1.1,1.1,1.9,2.2,1.8l6.9-0.3c1.1-0.1,2-0.9,2-2L70,71
	C69.9,68.2,67.3,66,64.2,66.2z"/>
<path d="M69.3,55.8c-0.6-0.9-1.8-1.3-2.8-0.8l-15.6,8l0,0c-2.7,1.4-3.6,4.5-2.2,6.9c1.5,2.5,4.8,3.4,7.5,2c0,0,0,0,0,0l15.6-8
	c1-0.5,1.4-1.7,0.8-2.6L69.3,55.8L69.3,55.8z"/>
<path d="M56.8,65.2c-1.8-2.3-5.3-2.7-7.7-1L27.8,78.9c-0.9,0.6-1.1,1.8-0.4,2.7l4.1,5.1c0.7,0.8,2,1,2.9,0.4l21.3-14.7
	C58.1,70.7,58.6,67.5,56.8,65.2z"/>
<path d="M90.3,32.7c0.8-1.6,0.1-3.4-1.6-4.2c0,0-0.1,0-0.1,0l-16.1-6.9c-1-0.4-2.3,0-2.7,0.9l-1.2,2.3c-0.5,1,0,2.1,1,2.5l16.1,6.9
	c0,0,0.1,0,0.1,0C87.5,35,89.5,34.3,90.3,32.7L90.3,32.7z"/>
<path d="M95.5,49.4c1.1-0.3,1.6-1.4,1.3-2.4l-6-15.9l0-0.1c-0.7-1.6-2.6-2.4-4.3-1.9c-1.8,0.6-2.7,2.3-2.1,4c0,0,0,0.1,0,0.1l6,15.9
	c0.4,1,1.5,1.5,2.6,1.2L95.5,49.4z"/>
<path d="M26.4,71.5c0,3.4-2.9,6.1-6.5,6.1c-3.6,0-6.5-2.7-6.5-6.1s2.9-6.1,6.5-6.1C23.5,65.3,26.4,68.1,26.4,71.5z"/>
</svg>
