<svg id="Layer_1" data-name="Layer 1" xmlns="http://www.w3.org/2000/svg" viewBox="0 0 118.0347 22.9371"><defs><style>.cls-1{fill:#fff;}</style></defs><path class="cls-1" d="M17.5,15.3a8.0558,8.0558,0,0,1-2.7,5.4,9.1656,9.1656,0,0,1-6,1.9,8.1574,8.1574,0,0,1-6.5-2.8A11.7258,11.7258,0,0,1,0,12.3V10.2A12.4424,12.4424,0,0,1,1.1,4.8,8.5621,8.5621,0,0,1,4.3,1.2,10.3432,10.3432,0,0,1,9.1,0a8.232,8.232,0,0,1,5.8,2,7.8374,7.8374,0,0,1,2.5,5.4h-3a6.05,6.05,0,0,0-1.7-3.8A5.2375,5.2375,0,0,0,9.1,2.4a5.593,5.593,0,0,0-4.5,2A10.1,10.1,0,0,0,3,10.3v2.1a9.5945,9.5945,0,0,0,1.5,5.7,4.9224,4.9224,0,0,0,4.3,2.1,5.6807,5.6807,0,0,0,3.8-1.1,6.17,6.17,0,0,0,1.8-3.8Z" transform="translate(0.0084 0.0094)"/><path class="cls-1" d="M38.3,15.3a8.0558,8.0558,0,0,1-2.7,5.4,9.1656,9.1656,0,0,1-6,1.9,8.1574,8.1574,0,0,1-6.5-2.8,10.7476,10.7476,0,0,1-2.4-7.5V10.2a12.4424,12.4424,0,0,1,1.1-5.4A8.5621,8.5621,0,0,1,25,1.2,11.0547,11.0547,0,0,1,29.9,0a8.232,8.232,0,0,1,5.8,2,7.8374,7.8374,0,0,1,2.5,5.4h-3a6.05,6.05,0,0,0-1.7-3.8,5.2375,5.2375,0,0,0-3.6-1.2,5.3977,5.3977,0,0,0-4.5,2.1,8.7091,8.7091,0,0,0-1.6,5.8v2.1a9.5945,9.5945,0,0,0,1.5,5.7,4.9224,4.9224,0,0,0,4.3,2.1,5.6807,5.6807,0,0,0,3.8-1.1,6.17,6.17,0,0,0,1.8-3.8Z" transform="translate(0.0084 0.0094)"/><path class="cls-1" d="M54.9,12.6H45.4v9.7h-3V.3H56.5V2.7H45.4v7.5h9.5Z" transform="translate(0.0084 0.0094)"/><path class="cls-1" d="M94.0352,2.8945h.7207v2.64h2.64v.72h-2.64v2.64h-.7207v-2.64h-2.64v-.72h2.64Z" transform="translate(0.0084 0.0094)"/><path class="cls-1" d="M99.665,10.1V1.46h3.12a4.7074,4.7074,0,0,1,1.2959.1562,2.3679,2.3679,0,0,1,.8818.4439,1.6806,1.6806,0,0,1,.498.69,2.4087,2.4087,0,0,1,.1563.8823,2.3021,2.3021,0,0,1-.12.7857,1.7455,1.7455,0,0,1-.3116.5522,1.4513,1.4513,0,0,1-.4384.3477,1.8294,1.8294,0,0,1-.51.1743v.0239a1.9523,1.9523,0,0,1,1.3379.708,2.31,2.31,0,0,1,.4385,1.44,2.7813,2.7813,0,0,1-.21,1.14,1.9528,1.9528,0,0,1-.582.7559,2.3342,2.3342,0,0,1-.8946.414,4.821,4.821,0,0,1-1.1337.126Zm.8164-4.8242h2.0635a4.4719,4.4719,0,0,0,1.0684-.1079A1.8137,1.8137,0,0,0,104.31,4.85a1.174,1.174,0,0,0,.3779-.5161,1.9982,1.9982,0,0,0,.1143-.7017,1.6256,1.6256,0,0,0-.1329-.69,1.0426,1.0426,0,0,0-.42-.4556,2.132,2.132,0,0,0-.75-.2524,6.9776,6.9776,0,0,0-1.1338-.0777h-1.8838Zm0,4.1284h2.0762a9.9087,9.9087,0,0,0,1.17-.06,2.1705,2.1705,0,0,0,.8223-.2461,1.17,1.17,0,0,0,.4854-.5278,2.1308,2.1308,0,0,0,.1621-.9062,1.816,1.816,0,0,0-.18-.87,1.2437,1.2437,0,0,0-.5166-.51,2.3934,2.3934,0,0,0-.8037-.2461,7.5174,7.5174,0,0,0-1.044-.0659h-2.1719Z" transform="translate(0.0084 0.0094)"/><path class="cls-1" d="M60.3389,10.3193l3.3955-8.64h.9238l3.3125,8.64h-.84l-.9961-2.7119H62.1982l-1.02,2.7119Zm2.1357-3.4082h3.3838L64.166,2.3755Z" transform="translate(0.0084 0.0094)"/><path class="cls-1" d="M69.4707,7.7393a2.5362,2.5362,0,0,0,.2578.978,1.9222,1.9222,0,0,0,.54.6538,2.1225,2.1225,0,0,0,.7617.3662,3.5993,3.5993,0,0,0,.9238.1143,3.09,3.09,0,0,0,.9961-.1441,1.8942,1.8942,0,0,0,.6846-.39,1.5339,1.5339,0,0,0,.39-.57,1.8737,1.8737,0,0,0,.126-.6841,1.3482,1.3482,0,0,0-.2285-.8159,1.7491,1.7491,0,0,0-.5938-.51,3.6424,3.6424,0,0,0-.84-.3179q-.4746-.12-.9717-.2339t-.9727-.27a3.0607,3.0607,0,0,1-.84-.42,2.0292,2.0292,0,0,1-.5937-.6777,2.1546,2.1546,0,0,1-.2276-1.05,2.1136,2.1136,0,0,1,.1856-.8643,2.1544,2.1544,0,0,1,.5517-.7441,2.71,2.71,0,0,1,.918-.5156,3.8667,3.8667,0,0,1,1.2724-.1924,3.6462,3.6462,0,0,1,1.2774.2041,2.5431,2.5431,0,0,1,.9062.5581,2.2911,2.2911,0,0,1,.54.8218,2.7481,2.7481,0,0,1,.18.996h-.7793a1.9511,1.9511,0,0,0-.1739-.852,1.6013,1.6013,0,0,0-.4746-.5879,2.0226,2.0226,0,0,0-.6836-.3359,2.9012,2.9012,0,0,0-.792-.1079,2.787,2.787,0,0,0-1.05.1738,1.8483,1.8483,0,0,0-.6787.45,1.5167,1.5167,0,0,0-.3476.6118,1.4661,1.4661,0,0,0-.0362.6719,1.1727,1.1727,0,0,0,.336.6723,2.1075,2.1075,0,0,0,.6484.4136,4.8445,4.8445,0,0,0,.8457.2642q.4614.1024.9424.2158c.3193.0762.63.1665.93.27a2.8743,2.8743,0,0,1,.7978.42,1.9355,1.9355,0,0,1,.5586.6778,2.2871,2.2871,0,0,1,.21,1.038,2.2429,2.2429,0,0,1-.8281,1.86,3.6515,3.6515,0,0,1-2.3282.66,4.3024,4.3024,0,0,1-1.248-.1739,2.7687,2.7687,0,0,1-.9961-.5283,2.4228,2.4228,0,0,1-.6543-.876,2.9971,2.9971,0,0,1-.2334-1.23Z" transform="translate(0.0084 0.0094)"/><path class="cls-1" d="M82.5977,4.1875a2.4713,2.4713,0,0,0-.9356-1.5723,3.1065,3.1065,0,0,0-1.7881-.4677,2.6268,2.6268,0,0,0-2.2734,1.1518,3.6918,3.6918,0,0,0-.54,1.2183,5.9307,5.9307,0,0,0-.1738,1.4575,6.7237,6.7237,0,0,0,.1494,1.416,3.784,3.784,0,0,0,.4981,1.2422,2.6379,2.6379,0,0,0,.9365.8818,2.9369,2.9369,0,0,0,1.4756.3365,2.7218,2.7218,0,0,0,1.0078-.18,2.5046,2.5046,0,0,0,.7979-.4981,2.8924,2.8924,0,0,0,.5761-.75,3.7671,3.7671,0,0,0,.3545-.9482h.8516a5.3857,5.3857,0,0,1-.42,1.1821,3.3643,3.3643,0,0,1-.7266.9781,3.31,3.31,0,0,1-1.0918.666,4.1975,4.1975,0,0,1-1.5059.2461,3.672,3.672,0,0,1-1.7041-.3662,3.2312,3.2312,0,0,1-1.1572-.99,4.1352,4.1352,0,0,1-.6543-1.4463A7.24,7.24,0,0,1,76.07,6a6.3483,6.3483,0,0,1,.3057-2.1,3.7468,3.7468,0,0,1,.8467-1.41,3.19,3.19,0,0,1,1.2714-.792,4.9979,4.9979,0,0,1,1.5967-.2461,4.1853,4.1853,0,0,1,1.23.1743,3.0143,3.0143,0,0,1,1.0078.522,2.8245,2.8245,0,0,1,.72.8579,3.607,3.607,0,0,1,.3906,1.1821Z" transform="translate(0.0084 0.0094)"/><path class="cls-1" d="M84.3506,1.6792h6.2881v.6963H87.9023v7.9438h-.8164V2.3755H84.3506Z" transform="translate(0.0084 0.0094)"/><path class="cls-1" d="M61.6787,18.7764V22.7l-.7725-.0117v-8.628h3.2012a3.4132,3.4132,0,0,1,2.0655.5333,2.0244,2.0244,0,0,1,.7148,1.7343,2.3517,2.3517,0,0,1-.3115,1.2959,2.4,2.4,0,0,1-1.0157.8164,1.2727,1.2727,0,0,1,.5674.3838,1.7276,1.7276,0,0,1,.3057.5762,3.0276,3.0276,0,0,1,.1309.6836q.0278.36.04.6963c.0068.3281.02.6.0391.8164s.0419.3916.0683.5273a1.2689,1.2689,0,0,0,.0967.3184.484.484,0,0,0,.1357.1738v.0723l-.85.0117a1.6326,1.6326,0,0,1-.1758-.6q-.0513-.3839-.08-.8047c-.0186-.2793-.0342-.5518-.0449-.8154a5.0725,5.0725,0,0,0-.0625-.6485,1.3954,1.3954,0,0,0-.2217-.5576,1.0208,1.0208,0,0,0-.3682-.3183,1.5083,1.5083,0,0,0-.4824-.1436,4.0471,4.0471,0,0,0-.5508-.0361ZM64.085,18.08a3.194,3.194,0,0,0,.8-.0957,1.7633,1.7633,0,0,0,.6416-.3067,1.48,1.48,0,0,0,.4306-.5332,1.753,1.753,0,0,0,.1592-.78,1.6919,1.6919,0,0,0-.1641-.792,1.2963,1.2963,0,0,0-.4433-.4922,1.8092,1.8092,0,0,0-.6358-.252,3.7642,3.7642,0,0,0-.7431-.0722H61.6787V18.08Z" transform="translate(0.0084 0.0094)"/><path class="cls-1" d="M68.4873,22.7v-8.64h5.4365v.6954H69.26v3.12h4.21v.6963H69.26v3.4316h4.7773V22.7Z" transform="translate(0.0084 0.0094)"/><path class="cls-1" d="M75.3877,22.7v-8.64H78.373a3.8063,3.8063,0,0,1,1.3106.1915,2.0114,2.0114,0,0,1,.8174.5283,1.8888,1.8888,0,0,1,.42.7734,3.507,3.507,0,0,1,.1191.919,2.2933,2.2933,0,0,1-.2783,1.1875,2.1134,2.1134,0,0,1-.7207.7382,3.01,3.01,0,0,1-1.0039.378,5.9572,5.9572,0,0,1-1.13.1074H76.16V22.7Zm2.543-4.5117a5.9651,5.9651,0,0,0,.9755-.0723,1.8815,1.8815,0,0,0,.7325-.27,1.32,1.32,0,0,0,.4648-.54,2.0805,2.0805,0,0,0,.1651-.8945,1.519,1.519,0,0,0-.5049-1.2363,2.5014,2.5014,0,0,0-1.6065-.42H76.16v3.4326Z" transform="translate(0.0084 0.0094)"/><path class="cls-1" d="M82.0391,18.3926a6.2422,6.2422,0,0,1,.2441-1.7764,4.3407,4.3407,0,0,1,.7207-1.4463,3.46,3.46,0,0,1,1.18-.9775,3.5148,3.5148,0,0,1,1.623-.36,3.7476,3.7476,0,0,1,1.6739.3545,3.4021,3.4021,0,0,1,1.2031.9717A4.29,4.29,0,0,1,89.41,16.61a6.3057,6.3057,0,0,1,.2441,1.7822A6.1357,6.1357,0,0,1,89.41,20.15,4.3542,4.3542,0,0,1,88.69,21.59a3.4319,3.4319,0,0,1-1.1915.9786,4.0014,4.0014,0,0,1-3.3144,0,3.44,3.44,0,0,1-1.1914-.9786,4.2874,4.2874,0,0,1-.7149-1.4394A6.276,6.276,0,0,1,82.0391,18.3926Zm3.8134,3.84a2.6844,2.6844,0,0,0,2.31-1.164,3.7321,3.7321,0,0,0,.5449-1.2246,5.9007,5.9007,0,0,0,.1758-1.4512,5.731,5.731,0,0,0-.21-1.6143,3.59,3.59,0,0,0-.6075-1.2178,2.6265,2.6265,0,0,0-.9648-.7685,2.9778,2.9778,0,0,0-1.27-.2637,2.7025,2.7025,0,0,0-1.3565.3242,2.808,2.808,0,0,0-.9424.8575,3.7709,3.7709,0,0,0-.5449,1.23,6.1338,6.1338,0,0,0,0,2.916,3.69,3.69,0,0,0,.5449,1.2237,2.7086,2.7086,0,0,0,.9424.84A2.8456,2.8456,0,0,0,85.8525,22.2324Z" transform="translate(0.0084 0.0094)"/><path class="cls-1" d="M91.9473,18.7764V22.7l-.7715-.0117v-8.628h3.2a3.4128,3.4128,0,0,1,2.0654.5333,2.0241,2.0241,0,0,1,.7148,1.7343,2.3517,2.3517,0,0,1-.3115,1.2959,2.4,2.4,0,0,1-1.0156.8164,1.2733,1.2733,0,0,1,.5674.3838,1.7274,1.7274,0,0,1,.3056.5762,3.0221,3.0221,0,0,1,.1309.6836q.0279.36.04.6963c.0069.3281.0206.6.0391.8164s.042.3916.0684.5273a1.2693,1.2693,0,0,0,.0966.3184.4841.4841,0,0,0,.1358.1738v.0723l-.8506.0117a1.6345,1.6345,0,0,1-.1758-.6q-.0513-.3839-.08-.8047c-.0185-.2793-.0341-.5518-.0449-.8154a5.0362,5.0362,0,0,0-.0625-.6485,1.394,1.394,0,0,0-.2217-.5576,1.0205,1.0205,0,0,0-.3681-.3183,1.5091,1.5091,0,0,0-.4824-.1436,4.0492,4.0492,0,0,0-.5508-.0361Zm2.4062-.6963a3.194,3.194,0,0,0,.8-.0957,1.7625,1.7625,0,0,0,.6416-.3067,1.48,1.48,0,0,0,.4307-.5332,1.7544,1.7544,0,0,0,.1592-.78,1.6919,1.6919,0,0,0-.1641-.792,1.2957,1.2957,0,0,0-.4434-.4922,1.8079,1.8079,0,0,0-.6357-.252,3.766,3.766,0,0,0-.7432-.0722H91.9473V18.08Z" transform="translate(0.0084 0.0094)"/><path class="cls-1" d="M98.0186,14.0605h5.9472v.6954h-2.5879V22.7h-.7715V14.7559H98.0186Z" transform="translate(0.0084 0.0094)"/><path class="cls-1" d="M105.0664,22.7v-8.64h5.4365v.6954h-4.664v3.12h4.21v.6963h-4.21v3.4316h4.7773V22.7Z" transform="translate(0.0084 0.0094)"/><path class="cls-1" d="M112.7607,18.7764V22.7l-.7714-.0117v-8.628h3.2a3.4131,3.4131,0,0,1,2.0654.5333,2.0244,2.0244,0,0,1,.7148,1.7343,2.3517,2.3517,0,0,1-.3115,1.2959,2.4,2.4,0,0,1-1.0156.8164,1.2738,1.2738,0,0,1,.5674.3838,1.7292,1.7292,0,0,1,.3056.5762,3.0276,3.0276,0,0,1,.1309.6836q.0277.36.04.6963c.0069.3281.02.6.0391.8164s.042.3916.0683.5273a1.2689,1.2689,0,0,0,.0967.3184.4831.4831,0,0,0,.1358.1738v.0723l-.8506.0117a1.6345,1.6345,0,0,1-.1758-.6q-.0513-.3839-.08-.8047c-.0185-.2793-.0342-.5518-.0449-.8154a5.0362,5.0362,0,0,0-.0625-.6485,1.394,1.394,0,0,0-.2217-.5576,1.0205,1.0205,0,0,0-.3681-.3183,1.5089,1.5089,0,0,0-.4825-.1436,4.0467,4.0467,0,0,0-.5507-.0361Zm2.4063-.6963a3.194,3.194,0,0,0,.8-.0957,1.7625,1.7625,0,0,0,.6416-.3067,1.4815,1.4815,0,0,0,.4307-.5332,1.7544,1.7544,0,0,0,.1591-.78,1.6919,1.6919,0,0,0-.164-.792,1.2965,1.2965,0,0,0-.4434-.4922,1.8087,1.8087,0,0,0-.6357-.252,3.766,3.766,0,0,0-.7432-.0722h-2.4512V18.08Z" transform="translate(0.0084 0.0094)"/></svg>