<?xml version="1.0" encoding="utf-8"?>
<!-- Generator: Adobe Illustrator 24.1.0, SVG Export Plug-In . SVG Version: 6.00 Build 0)  -->
<svg version="1.1" id="Layer_1" xmlns="http://www.w3.org/2000/svg" xmlns:xlink="http://www.w3.org/1999/xlink" x="0px" y="0px"
	 viewBox="0 0 843.7 851" style="enable-background:new 0 0 843.7 851;" xml:space="preserve">
<g>
	<g>
		<rect x="135.4" y="521.6" width="126.1" height="231"/>
		<g>
			<path d="M261.5,740.1c-36.9,0-73.8,0-110.6,0c-5.1,0-10.3,0-15.4,0c4.1,4.1,8.3,8.3,12.4,12.4c0-26,0-52.1,0-78.1
				c0-41.5,0-82.9,0-124.4c0-9.4,0-18.9,0-28.4c-4.1,4.1-8.3,8.3-12.4,12.4c36.9,0,73.8,0,110.6,0c5.1,0,10.3,0,15.4,0
				c-4.1-4.1-8.3-8.3-12.4-12.4c0,26,0,52.1,0,78.1c0,41.5,0,82.9,0,124.4c0,9.4,0,18.9,0,28.4c0,6.4,5.7,12.7,12.4,12.4
				c6.7-0.3,12.4-5.5,12.4-12.4c0-26,0-52.1,0-78.1c0-41.5,0-82.9,0-124.4c0-9.4,0-18.9,0-28.4c0-6.7-5.7-12.4-12.4-12.4
				c-36.9,0-73.8,0-110.6,0c-5.1,0-10.3,0-15.4,0c-6.7,0-12.4,5.7-12.4,12.4c0,26,0,52.1,0,78.1c0,41.5,0,82.9,0,124.4
				c0,9.4,0,18.9,0,28.4c0,6.7,5.7,12.4,12.4,12.4c36.9,0,73.8,0,110.6,0c5.1,0,10.3,0,15.4,0c6.4,0,12.7-5.7,12.4-12.4
				S268.5,740.1,261.5,740.1z"/>
		</g>
	</g>
	<g>
		<rect x="358.9" y="462.9" width="126.1" height="289.6"/>
		<g>
			<path d="M484.9,740.1c-36.9,0-73.8,0-110.6,0c-5.1,0-10.3,0-15.4,0c4.1,4.1,8.3,8.3,12.4,12.4c0-9.6,0-19.1,0-28.7
				c0-23.2,0-46.2,0-69.4c0-27.9,0-55.7,0-83.5c0-24.1,0-48.2,0-72.3c0-11.7,0.7-23.6,0-35.2c0-0.2,0-0.3,0-0.5
				c-4.1,4.1-8.3,8.3-12.4,12.4c36.9,0,73.8,0,110.6,0c5.1,0,10.3,0,15.4,0c-4.1-4.1-8.3-8.3-12.4-12.4c0,9.6,0,19.1,0,28.7
				c0,23.2,0,46.2,0,69.4c0,27.9,0,55.7,0,83.5c0,24.1,0,48.2,0,72.3c0,11.7-0.4,23.5,0,35.2c0,0.2,0,0.3,0,0.5
				c0,6.4,5.7,12.7,12.4,12.4s12.4-5.5,12.4-12.4c0-9.6,0-19.1,0-28.7c0-23.2,0-46.2,0-69.4c0-27.9,0-55.7,0-83.5
				c0-24.1,0-48.2,0-72.3c0-11.7,0.4-23.5,0-35.2c0-0.2,0-0.3,0-0.5c0-6.7-5.7-12.4-12.4-12.4c-36.9,0-73.8,0-110.6,0
				c-5.1,0-10.3,0-15.4,0c-6.7,0-12.4,5.7-12.4,12.4c0,9.6,0,19.1,0,28.7c0,23.2,0,46.2,0,69.4c0,27.9,0,55.7,0,83.5
				c0,24.1,0,48.2,0,72.3c0,11.7-0.4,23.5,0,35.2c0,0.2,0,0.3,0,0.5c0,6.7,5.7,12.4,12.4,12.4c36.9,0,73.8,0,110.6,0
				c5.1,0,10.3,0,15.4,0c6.4,0,12.7-5.7,12.4-12.4C497.1,745.8,491.9,740.1,484.9,740.1z"/>
		</g>
	</g>
	<g>
		<rect x="582.3" y="323.1" width="126.1" height="429.4"/>
		<g>
			<path d="M708.4,740.1c-36.9,0-73.8,0-110.6,0c-5.1,0-10.3,0-15.4,0c4.1,4.1,8.3,8.3,12.4,12.4c0-14.2,0-28.4,0-42.7
				c0-34.1,0-68.3,0-102.4c0-41.3,0-82.7,0-124c0-35.7,0-71.5,0-107.2c0-11.8,0-23.6,0-35.4c0-5.6,0.3-11.2,0-16.9
				c0-0.2,0-0.5,0-0.7c-4.1,4.1-8.3,8.3-12.4,12.4c36.9,0,73.8,0,110.6,0c5.1,0,10.3,0,15.4,0c-4.1-4.1-8.3-8.3-12.4-12.4
				c0,14.2,0,28.4,0,42.7c0,34.1,0,68.3,0,102.4c0,41.3,0,82.7,0,124c0,35.7,0,71.5,0,107.2c0,17.4-0.5,34.9,0,52.3
				c0,0.2,0,0.5,0,0.7c0,6.4,5.7,12.7,12.4,12.4s12.4-5.5,12.4-12.4c0-14.2,0-28.4,0-42.7c0-34.1,0-68.3,0-102.4
				c0-41.3,0-82.7,0-124c0-35.7,0-71.5,0-107.2c0-17.4,0.5-34.9,0-52.3c0-0.2,0-0.5,0-0.7c0-6.7-5.7-12.4-12.4-12.4
				c-36.9,0-73.8,0-110.6,0c-5.1,0-10.3,0-15.4,0c-6.7,0-12.4,5.7-12.4,12.4c0,14.2,0,28.4,0,42.7c0,34.1,0,68.3,0,102.4
				c0,41.3,0,82.7,0,124c0,35.7,0,71.5,0,107.2c0,17.4-0.5,34.9,0,52.3c0,0.2,0,0.5,0,0.7c0,6.7,5.7,12.4,12.4,12.4
				c36.9,0,73.8,0,110.6,0c5.1,0,10.3,0,15.4,0c6.4,0,12.7-5.7,12.4-12.4C720.5,745.8,715.4,740.1,708.4,740.1z"/>
		</g>
	</g>
	<g>
		<g>
			<path d="M97.9,777.3c5.8,0,11.6,0,17.4,0c15.7,0,31.3,0,47,0c23.3,0,46.6,0,69.9,0c28.3,0,56.6,0,84.8,0c31.1,0,62.3,0,93.3,0
				c31.4,0,62.8,0,94.3,0c29.2,0,58.3,0,87.5,0c24.7,0,49.5,0,74.2,0c17.7,0,35.5,0,53.2,0c8.4,0,16.9,0.1,25.3,0c0.3,0,0.7,0,1.1,0
				c13,0,25.4-11.4,24.8-24.8c-0.6-13.5-10.9-24.8-24.8-24.8c-5.8,0-11.6,0-17.4,0c-15.7,0-31.3,0-47,0c-23.3,0-46.6,0-69.9,0
				c-28.3,0-56.6,0-84.8,0c-31.1,0-62.3,0-93.3,0c-31.4,0-62.8,0-94.3,0c-29.2,0-58.3,0-87.5,0c-24.7,0-49.5,0-74.2,0
				c-17.7,0-35.5,0-53.2,0c-8.4,0-16.9-0.1-25.3,0c-0.3,0-0.7,0-1.1,0c-13,0-25.4,11.4-24.8,24.8C73.7,766,84,777.3,97.9,777.3
				L97.9,777.3z"/>
		</g>
	</g>
	<g>
		<g>
			<path d="M144.7,441.9c17.9-17.9,35.8-35.8,53.7-53.7c28.4-28.4,57-57,85.4-85.4c6.4-6.4,13-13,19.4-19.4c-11.7,0-23.4,0-35.1,0
				c12,12,24,24,35.9,35.9c19.2,19.2,38.4,38.4,57.6,57.6c4.4,4.4,8.8,8.8,13.2,13.2c9.5,9.5,25.5,9.5,35.1,0
				c9.1-9.1,18.2-18.2,27.3-27.3c21.8-21.8,43.7-43.7,65.6-65.6c26.3-26.3,52.7-52.7,79-79c22.8-22.8,45.7-45.7,68.5-68.5
				c11.1-11.1,22.5-22.1,33.3-33.3c0.2-0.2,0.3-0.3,0.5-0.5c9.2-9.2,9.8-26,0-35.1c-9.9-9.1-25.3-9.8-35.1,0
				c-9.1,9.1-18.2,18.2-27.3,27.3c-21.8,21.8-43.7,43.7-65.6,65.6c-26.3,26.3-52.7,52.7-79,79c-22.8,22.8-45.7,45.7-68.5,68.5
				c-11.1,11.1-22.6,22-33.3,33.3c-0.2,0.2-0.3,0.3-0.5,0.5c11.7,0,23.4,0,35.1,0c-12-12-24-24-35.9-35.9
				c-19.2-19.2-38.4-38.4-57.6-57.6c-4.4-4.4-8.8-8.8-13.2-13.2c-9.5-9.5-25.5-9.5-35.1,0c-17.9,17.9-35.8,35.8-53.7,53.7
				c-28.4,28.4-57,57-85.4,85.4c-6.4,6.4-13,13-19.4,19.4c-9.2,9.2-9.8,26,0,35.1C119.5,451,134.9,451.7,144.7,441.9L144.7,441.9z"
				/>
		</g>
	</g>
	<g>
		<g>
			<path d="M577.1,123.3c26.1,0,52.3,0,78.4,0c3.7,0,7.4,0,11.2,0c-8.3-8.3-16.5-16.5-24.8-24.8c0,26.1,0,52.3,0,78.4
				c0,3.7,0,7.4,0,11.2c0,13,11.4,25.4,24.8,24.8c13.5-0.6,24.8-10.9,24.8-24.8c0-26.1,0-52.3,0-78.4c0-3.7,0-7.4,0-11.2
				c0-13.4-11.3-24.8-24.8-24.8c-26.1,0-52.3,0-78.4,0c-3.7,0-7.4,0-11.2,0c-13,0-25.4,11.4-24.8,24.8S563.2,123.3,577.1,123.3
				L577.1,123.3z"/>
		</g>
	</g>
</g>
</svg>
