<svg xmlns="http://www.w3.org/2000/svg" xmlns:xlink="http://www.w3.org/1999/xlink" width="1920" height="1080" viewBox="0 0 1920 1080">
  <defs>
    <clipPath id="clip-_2">
      <rect width="1920" height="1080"/>
    </clipPath>
  </defs>
  <g id="_2" data-name="2" clip-path="url(#clip-_2)">
    <rect width="1920" height="1080" fill="#fff"/>
    <g id="Group_37" data-name="Group 37">
      <g id="Group_36" data-name="Group 36">
        <rect id="Rectangle_1" data-name="Rectangle 1" width="1920" height="124" fill="#444a65"/>
        <g id="Group_5" data-name="Group 5" transform="translate(15.15 21)">
          <g id="Group_1" data-name="Group 1" transform="translate(36.85 17)" opacity="0.85">
            <rect id="Rectangle_3" data-name="Rectangle 3" width="247" height="49" rx="5" fill="#fdfdfd"/>
            <rect id="Rectangle_4" data-name="Rectangle 4" width="247" height="49" rx="5" fill="#fdfdfd"/>
          </g>
          <g id="Group_2" data-name="Group 2" transform="translate(1221.084 17)" opacity="0.852">
            <rect id="Rectangle_3-2" data-name="Rectangle 3" width="247" height="49" rx="5" transform="translate(-0.234)" fill="#d3d3d3"/>
            <rect id="Rectangle_4-2" data-name="Rectangle 4" width="247" height="49" rx="5" transform="translate(-0.234)" fill="#d3d3d3"/>
          </g>
          <g id="Group_3" data-name="Group 3" transform="translate(1495.233 17)" opacity="0.85">
            <rect id="Rectangle_3-3" data-name="Rectangle 3" width="247" height="49" rx="5" transform="translate(-0.383)" fill="#d3d3d3"/>
            <rect id="Rectangle_4-3" data-name="Rectangle 4" width="247" height="49" rx="5" transform="translate(-0.383)" fill="#d3d3d3" opacity="0.85"/>
          </g>
          <g id="Group_4" data-name="Group 4" transform="translate(1775.233 17)" opacity="0.85">
            <rect id="Rectangle_3-4" data-name="Rectangle 3" width="78" height="49" rx="5" transform="translate(-0.383)" fill="#d3d3d3"/>
            <rect id="Rectangle_4-4" data-name="Rectangle 4" width="78" height="49" rx="5" transform="translate(-0.383)" fill="#d3d3d3"/>
          </g>
        </g>
      </g>
      <g id="Group_35" data-name="Group 35" transform="translate(0 42)">
        <rect id="Rectangle_2" data-name="Rectangle 2" width="1920" height="94" transform="translate(0 82)" fill="#f2f2f2"/>
        <g id="Group_6" data-name="Group 6" transform="translate(25 93.358)">
          <rect id="Rectangle_3-5" data-name="Rectangle 3" width="417" height="49" rx="5" transform="translate(23 11.642)" fill="#d3d3d3"/>
          <rect id="Rectangle_4-5" data-name="Rectangle 4" width="417" height="49" rx="5" transform="translate(23 11.642)" fill="#d3d3d3"/>
        </g>
        <g id="Group_7" data-name="Group 7" transform="translate(684 93.358)">
          <rect id="Rectangle_3-6" data-name="Rectangle 3" width="154" height="49" rx="5" transform="translate(23 11.642)" fill="#d3d3d3"/>
          <rect id="Rectangle_4-6" data-name="Rectangle 4" width="154" height="49" rx="5" transform="translate(23 11.642)" fill="#d3d3d3"/>
        </g>
        <g id="Group_14" data-name="Group 14" transform="translate(1094 93.358)">
          <rect id="Rectangle_3-7" data-name="Rectangle 3" width="154" height="49" rx="5" transform="translate(23 11.642)" fill="#d3d3d3"/>
          <rect id="Rectangle_4-7" data-name="Rectangle 4" width="154" height="49" rx="5" transform="translate(23 11.642)" fill="#d3d3d3"/>
        </g>
      </g>
    </g>
    <g id="Group_38" data-name="Group 38">
      <g id="Group_39" data-name="Group 39">
        <g id="Group_12" data-name="Group 12" transform="translate(244 82)">
          <path id="Path_32" data-name="Path 32" d="M349.52,309.524a43.553,43.553,0,1,1-43.551-43.555,43.584,43.584,0,0,1,43.551,43.555" transform="translate(-54.97 266.626)" fill="#e41a1c"/>
          <g id="asct_b_vis_1_" data-name="asct+b vis (1)" transform="translate(294.366 249.316)">
            <g id="Group_11" data-name="Group 11" transform="translate(0 0)">
              <g id="Group_9" data-name="Group 9" transform="translate(391.993)">
                <path id="Path_38" data-name="Path 38" d="M-93.5,151.556C74.008,151.556,74.008-11.7,242.059-11.7" transform="translate(93.5 11.7)" fill="none" stroke="#727272" stroke-miterlimit="10" stroke-width="12"/>
                <path id="Path_39" data-name="Path 39" d="M-93.5,32.9c167.508,0,167.508,163.256,335.559,163.256" transform="translate(93.5 130.356)" fill="none" stroke="#727272" stroke-miterlimit="10" stroke-width="12"/>
                <path id="Path_40" data-name="Path 40" d="M-93.5,122.4c167.508,0,167.508,163.256,335.559,163.256" transform="translate(93.5 368.466)" fill="none" stroke="#727272" stroke-miterlimit="10" stroke-width="12"/>
                <line id="Line_1" data-name="Line 1" transform="translate(22.226 491.964)" fill="none" stroke="#727272" stroke-miterlimit="10" stroke-width="12"/>
              </g>
              <g id="Group_10" data-name="Group 10" transform="translate(0 164.354)">
                <path id="Path_41" data-name="Path 41" d="M-172.7,196.456C-5.192,196.456-5.192,33.2,162.859,33.2" transform="translate(172.7 -33.2)" fill="none" stroke="#727272" stroke-miterlimit="10" stroke-width="12"/>
                <path id="Path_42" data-name="Path 42" d="M-172.7,77.8C-5.192,77.8-5.192,241.056,162.859,241.056" transform="translate(172.7 85.456)" fill="none" stroke="#727272" stroke-miterlimit="10" stroke-width="12"/>
              </g>
            </g>
          </g>
          <path id="Path_48" data-name="Path 48" d="M349.517,309.52a43.551,43.551,0,1,1-43.549-43.551,43.581,43.581,0,0,1,43.549,43.551" transform="translate(348.223 431.598)" fill="#377eb8"/>
          <path id="Path_49" data-name="Path 49" d="M349.517,309.52a43.551,43.551,0,1,1-43.549-43.551,43.581,43.581,0,0,1,43.549,43.551" transform="translate(348.223 98.509)" fill="#377eb8"/>
          <path id="Path_50" data-name="Path 50" d="M349.517,309.52a43.551,43.551,0,1,1-43.549-43.551,43.581,43.581,0,0,1,43.549,43.551" transform="translate(742.088 -60.469)" fill="#4daf4a"/>
          <path id="Path_51" data-name="Path 51" d="M349.517,309.523a43.551,43.551,0,1,1-43.549-43.554,43.582,43.582,0,0,1,43.549,43.554" transform="translate(742.088 266.62)" fill="#4daf4a"/>
          <path id="Path_52" data-name="Path 52" d="M349.517,309.523a43.551,43.551,0,1,1-43.549-43.554,43.582,43.582,0,0,1,43.549,43.554" transform="translate(742.088 593.313)" fill="#4daf4a"/>
        </g>
      </g>
      <g id="Group_13" data-name="Group 13" transform="translate(29 243.358)">
        <rect id="Rectangle_3-8" data-name="Rectangle 3" width="234" height="176" rx="5" transform="translate(23 11.642)" fill="#efefef"/>
        <rect id="Rectangle_4-8" data-name="Rectangle 4" width="234" height="176" rx="5" transform="translate(23 11.642)" fill="#efefef"/>
      </g>
      <path id="Path_53" data-name="Path 53" d="M0,0H1920V1080H0Z" fill="#464646" opacity="0.71"/>
      <rect id="Rectangle_8" data-name="Rectangle 8" width="642" height="1080" transform="translate(1278)" fill="#fff"/>
      <g id="Group_2-2" data-name="Group 2" transform="translate(1316.234 42)" opacity="0.852">
        <rect id="Rectangle_3-9" data-name="Rectangle 3" width="355" height="49" rx="5" transform="translate(-0.234)" fill="#d3d3d3"/>
        <rect id="Rectangle_4-9" data-name="Rectangle 4" width="355" height="49" rx="5" transform="translate(-0.234)" fill="#d3d3d3"/>
      </g>
      <g id="Group_23" data-name="Group 23" transform="translate(0 49)">
        <g id="Group_19" data-name="Group 19" transform="translate(1316 152)" opacity="0.852">
          <rect id="Rectangle_3-10" data-name="Rectangle 3" width="519" height="24" rx="5" fill="#d3d3d3"/>
          <rect id="Rectangle_4-10" data-name="Rectangle 4" width="519" height="24" rx="5" fill="#d3d3d3"/>
        </g>
        <g id="Group_20" data-name="Group 20" transform="translate(1316 488)" opacity="0.852">
          <rect id="Rectangle_3-11" data-name="Rectangle 3" width="519" height="24" rx="5" fill="#d3d3d3"/>
          <rect id="Rectangle_4-11" data-name="Rectangle 4" width="519" height="24" rx="5" fill="#d3d3d3"/>
        </g>
        <g id="Group_21" data-name="Group 21" transform="translate(1316 264)" opacity="0.852">
          <rect id="Rectangle_3-12" data-name="Rectangle 3" width="519" height="24" rx="5" fill="#d3d3d3"/>
          <rect id="Rectangle_4-12" data-name="Rectangle 4" width="519" height="24" rx="5" fill="#d3d3d3"/>
        </g>
        <g id="Group_22" data-name="Group 22" transform="translate(1316 376)" opacity="0.852">
          <rect id="Rectangle_3-13" data-name="Rectangle 3" width="519" height="24" rx="5" fill="#d3d3d3"/>
          <rect id="Rectangle_4-13" data-name="Rectangle 4" width="519" height="24" rx="5" fill="#d3d3d3"/>
        </g>
      </g>
      <rect id="Rectangle_9" data-name="Rectangle 9" width="178" height="56" rx="10" transform="translate(1324 964)" fill="#3f51b5"/>
      <rect id="Rectangle_10" data-name="Rectangle 10" width="178" height="56" rx="10" transform="translate(1697 964)" fill="#f44336"/>
    </g>
  </g>
</svg>
