<svg xmlns="http://www.w3.org/2000/svg" xmlns:xlink="http://www.w3.org/1999/xlink" width="1920" height="1080" viewBox="0 0 1920 1080">
  <defs>
    <clipPath id="clip-_3">
      <rect width="1920" height="1080"/>
    </clipPath>
  </defs>
  <g id="_3" data-name="3" clip-path="url(#clip-_3)">
    <rect width="1920" height="1080" fill="#fff"/>
    <g id="Group_34" data-name="Group 34" transform="translate(-1 167)">
      <g id="Group_6" data-name="Group 6" transform="translate(25 100.358)">
        <rect id="Rectangle_3" data-name="Rectangle 3" width="963" height="49" rx="5" transform="translate(23 11.642)" fill="#d3d3d3"/>
        <rect id="Rectangle_4" data-name="Rectangle 4" width="963" height="49" rx="5" transform="translate(23 11.642)" fill="#d3d3d3"/>
      </g>
      <g id="Group_24" data-name="Group 24" transform="translate(120 183.358)">
        <rect id="Rectangle_3-2" data-name="Rectangle 3" width="638" height="49" rx="5" transform="translate(23 11.642)" fill="#d3d3d3"/>
        <rect id="Rectangle_4-2" data-name="Rectangle 4" width="638" height="49" rx="5" transform="translate(23 11.642)" fill="#d3d3d3"/>
      </g>
      <g id="Group_25" data-name="Group 25" transform="translate(202 266.358)">
        <rect id="Rectangle_3-3" data-name="Rectangle 3" width="340" height="49" rx="5" transform="translate(23 11.642)" fill="#d3d3d3"/>
        <rect id="Rectangle_4-3" data-name="Rectangle 4" width="340" height="49" rx="5" transform="translate(23 11.642)" fill="#d3d3d3"/>
      </g>
      <g id="Group_26" data-name="Group 26" transform="translate(260 349.358)">
        <rect id="Rectangle_3-4" data-name="Rectangle 3" width="340" height="49" rx="5" transform="translate(23 11.642)" fill="#d3d3d3"/>
        <rect id="Rectangle_4-4" data-name="Rectangle 4" width="340" height="49" rx="5" transform="translate(23 11.642)" fill="#d3d3d3"/>
      </g>
      <g id="Group_27" data-name="Group 27" transform="translate(311 444.358)">
        <rect id="Rectangle_3-5" data-name="Rectangle 3" width="416" height="49" rx="5" transform="translate(23 11.642)" fill="#d3d3d3"/>
        <rect id="Rectangle_4-5" data-name="Rectangle 4" width="416" height="49" rx="5" transform="translate(23 11.642)" fill="#d3d3d3"/>
      </g>
      <g id="Group_28" data-name="Group 28" transform="translate(311 527.358)">
        <rect id="Rectangle_3-6" data-name="Rectangle 3" width="416" height="49" rx="5" transform="translate(23 11.642)" fill="#d3d3d3"/>
        <rect id="Rectangle_4-6" data-name="Rectangle 4" width="416" height="49" rx="5" transform="translate(23 11.642)" fill="#d3d3d3"/>
      </g>
      <g id="Group_29" data-name="Group 29" transform="translate(311 610.358)">
        <rect id="Rectangle_3-7" data-name="Rectangle 3" width="416" height="49" rx="5" transform="translate(23 11.642)" fill="#d3d3d3"/>
        <rect id="Rectangle_4-7" data-name="Rectangle 4" width="416" height="49" rx="5" transform="translate(23 11.642)" fill="#d3d3d3"/>
      </g>
      <g id="Group_30" data-name="Group 30" transform="translate(150 693.358)">
        <rect id="Rectangle_3-8" data-name="Rectangle 3" width="416" height="49" rx="5" transform="translate(23 11.642)" fill="#d3d3d3"/>
        <rect id="Rectangle_4-8" data-name="Rectangle 4" width="416" height="49" rx="5" transform="translate(23 11.642)" fill="#d3d3d3"/>
      </g>
      <g id="Group_31" data-name="Group 31" transform="translate(202 776.358)">
        <rect id="Rectangle_3-9" data-name="Rectangle 3" width="340" height="49" rx="5" transform="translate(23 11.642)" fill="#d3d3d3"/>
        <rect id="Rectangle_4-9" data-name="Rectangle 4" width="340" height="49" rx="5" transform="translate(23 11.642)" fill="#d3d3d3"/>
      </g>
      <g id="Group_33" data-name="Group 33" transform="translate(202 954.358)">
        <rect id="Rectangle_3-10" data-name="Rectangle 3" width="340" height="49" rx="5" transform="translate(23 11.642)" fill="#d3d3d3"/>
        <rect id="Rectangle_4-10" data-name="Rectangle 4" width="340" height="49" rx="5" transform="translate(23 11.642)" fill="#d3d3d3"/>
      </g>
    </g>
    <g id="Group_37" data-name="Group 37">
      <g id="Group_36" data-name="Group 36">
        <rect id="Rectangle_1" data-name="Rectangle 1" width="1920" height="124" fill="#444a65"/>
        <g id="Group_5" data-name="Group 5" transform="translate(15.15 21)">
          <g id="Group_1" data-name="Group 1" transform="translate(36.85 17)" opacity="0.85">
            <rect id="Rectangle_3-11" data-name="Rectangle 3" width="247" height="49" rx="5" fill="#fdfdfd"/>
            <rect id="Rectangle_4-11" data-name="Rectangle 4" width="247" height="49" rx="5" fill="#fdfdfd"/>
          </g>
          <g id="Group_2" data-name="Group 2" transform="translate(1221.084 17)" opacity="0.852">
            <rect id="Rectangle_3-12" data-name="Rectangle 3" width="247" height="49" rx="5" transform="translate(-0.234)" fill="#d3d3d3"/>
            <rect id="Rectangle_4-12" data-name="Rectangle 4" width="247" height="49" rx="5" transform="translate(-0.234)" fill="#d3d3d3"/>
          </g>
          <g id="Group_3" data-name="Group 3" transform="translate(1495.233 17)" opacity="0.85">
            <rect id="Rectangle_3-13" data-name="Rectangle 3" width="247" height="49" rx="5" transform="translate(-0.383)" fill="#d3d3d3"/>
            <rect id="Rectangle_4-13" data-name="Rectangle 4" width="247" height="49" rx="5" transform="translate(-0.383)" fill="#d3d3d3" opacity="0.85"/>
          </g>
          <g id="Group_4" data-name="Group 4" transform="translate(1775.233 17)" opacity="0.85">
            <rect id="Rectangle_3-14" data-name="Rectangle 3" width="78" height="49" rx="5" transform="translate(-0.383)" fill="#d3d3d3"/>
            <rect id="Rectangle_4-14" data-name="Rectangle 4" width="78" height="49" rx="5" transform="translate(-0.383)" fill="#d3d3d3"/>
          </g>
        </g>
      </g>
      <g id="Group_35" data-name="Group 35" transform="translate(0 42)">
        <rect id="Rectangle_2" data-name="Rectangle 2" width="1920" height="94" transform="translate(0 82)" fill="#f2f2f2"/>
        <g id="Group_6-2" data-name="Group 6" transform="translate(25 93.358)">
          <rect id="Rectangle_3-15" data-name="Rectangle 3" width="234" height="49" rx="5" transform="translate(23 11.642)" fill="#d3d3d3"/>
          <rect id="Rectangle_4-15" data-name="Rectangle 4" width="234" height="49" rx="5" transform="translate(23 11.642)" fill="#d3d3d3"/>
        </g>
        <g id="Group_7" data-name="Group 7" transform="translate(684 93.358)">
          <rect id="Rectangle_3-16" data-name="Rectangle 3" width="154" height="49" rx="5" transform="translate(23 11.642)" fill="#d3d3d3"/>
          <rect id="Rectangle_4-16" data-name="Rectangle 4" width="154" height="49" rx="5" transform="translate(23 11.642)" fill="#d3d3d3"/>
        </g>
        <g id="Group_14" data-name="Group 14" transform="translate(1094 93.358)">
          <rect id="Rectangle_3-17" data-name="Rectangle 3" width="154" height="49" rx="5" transform="translate(23 11.642)" fill="#d3d3d3"/>
          <rect id="Rectangle_4-17" data-name="Rectangle 4" width="154" height="49" rx="5" transform="translate(23 11.642)" fill="#d3d3d3"/>
        </g>
      </g>
    </g>
  </g>
</svg>
