<?xml version="1.0" encoding="utf-8"?>
<!-- Generator: Adobe Illustrator 24.1.0, SVG Export Plug-In . SVG Version: 6.00 Build 0)  -->
<svg version="1.1" id="Layer_1" xmlns="http://www.w3.org/2000/svg" xmlns:xlink="http://www.w3.org/1999/xlink" x="0px" y="0px"
	 viewBox="0 0 118 22.9" style="enable-background:new 0 0 118 22.9;" xml:space="preserve">
<style type="text/css">
	.st0{fill:#FFFFFF;}
</style>
<path class="st0" d="M17.5,15.3c-0.2,2.1-1.1,4-2.7,5.4c-1.7,1.3-3.8,2-6,1.9c-2.5,0.1-4.8-0.9-6.5-2.8C0.7,17.7-0.1,15,0,12.3v-2.1
	c0-1.9,0.3-3.7,1.1-5.4c0.7-1.5,1.8-2.7,3.2-3.6C5.8,0.4,7.5,0,9.1,0c2.1-0.1,4.2,0.6,5.8,2c1.5,1.4,2.4,3.3,2.5,5.4h-3
	c-0.1-1.4-0.7-2.8-1.7-3.8c-1-0.8-2.3-1.3-3.6-1.2C7.4,2.3,5.7,3.1,4.6,4.4C3.5,6.1,2.9,8.2,3,10.3v2.1c-0.1,2,0.4,4,1.5,5.7
	c1,1.4,2.6,2.2,4.3,2.1c1.4,0.1,2.7-0.3,3.8-1.1c1-1,1.7-2.4,1.8-3.8L17.5,15.3z"/>
<path class="st0" d="M38.3,15.3c-0.2,2.1-1.1,4-2.7,5.4c-1.7,1.3-3.8,2-6,1.9c-2.5,0.1-4.8-0.9-6.5-2.8c-1.7-2.1-2.6-4.8-2.4-7.5
	v-2.1c0-1.9,0.3-3.7,1.1-5.4c0.7-1.5,1.8-2.7,3.2-3.6C26.6,0.4,28.3,0,29.9,0c2.1-0.1,4.2,0.6,5.8,2c1.5,1.4,2.4,3.3,2.5,5.4h-3
	c-0.1-1.4-0.7-2.8-1.7-3.8c-1-0.8-2.3-1.3-3.6-1.2c-1.7-0.1-3.4,0.7-4.5,2.1c-1.2,1.7-1.8,3.8-1.6,5.8v2.1c-0.1,2,0.4,4,1.5,5.7
	c1,1.4,2.6,2.2,4.3,2.1c1.4,0.1,2.7-0.3,3.8-1.1c1-1,1.7-2.4,1.8-3.8L38.3,15.3z"/>
<path class="st0" d="M54.9,12.6h-9.5v9.7h-3v-22h14.1v2.4H45.4v7.5h9.5V12.6z"/>
<path class="st0" d="M66.1,7.7h-3.9l-0.9,2.4h-0.8l3.2-8.5h0.7l3.2,8.5h-0.8L66.1,7.7z M62.4,7.1h3.4l-1.7-4.6L62.4,7.1z"/>
<path class="st0" d="M73.8,8c0-0.4-0.2-0.8-0.5-1.1c-0.6-0.4-1.2-0.6-1.8-0.8c-0.7-0.2-1.3-0.4-1.9-0.8c-0.9-0.6-1.1-1.8-0.5-2.7
	c0.1-0.2,0.3-0.4,0.5-0.5c0.6-0.4,1.3-0.6,2.1-0.6c0.5,0,1,0.1,1.5,0.3c0.4,0.2,0.8,0.5,1,0.9c0.2,0.4,0.4,0.8,0.4,1.3h-0.7
	c0-0.5-0.2-1.1-0.6-1.4c-0.4-0.4-1-0.6-1.6-0.5C71,2,70.4,2.2,70,2.5c-0.4,0.3-0.6,0.7-0.6,1.1c0,0.4,0.2,0.8,0.5,1.1
	c0.5,0.3,1.1,0.6,1.7,0.7c0.6,0.1,1.2,0.4,1.7,0.6c0.4,0.2,0.7,0.5,0.9,0.8c0.2,0.3,0.3,0.7,0.3,1.1c0,0.6-0.3,1.2-0.8,1.6
	c-0.6,0.4-1.4,0.6-2.1,0.6c-0.6,0-1.1-0.1-1.7-0.3c-0.5-0.2-0.9-0.5-1.1-0.9c-0.3-0.4-0.4-0.9-0.4-1.3h0.7c0,0.6,0.2,1.1,0.7,1.4
	c0.5,0.4,1.2,0.6,1.8,0.5c0.6,0,1.1-0.1,1.6-0.4C73.6,8.9,73.8,8.5,73.8,8z"/>
<path class="st0" d="M82.1,7.5c0,0.8-0.4,1.5-1,2.1c-0.6,0.5-1.4,0.8-2.2,0.7c-0.6,0-1.2-0.2-1.7-0.5c-0.5-0.3-0.9-0.8-1.1-1.3
	c-0.3-0.6-0.4-1.3-0.4-2V5.3c0-0.7,0.1-1.4,0.4-2c0.2-0.6,0.6-1,1.1-1.4c0.5-0.3,1.1-0.5,1.7-0.5c0.8,0,1.6,0.2,2.2,0.7
	c0.6,0.5,0.9,1.3,0.9,2h-0.7c0-1.2-1-2.2-2.2-2.2c-0.1,0-0.1,0-0.2,0c-0.7,0-1.4,0.3-1.8,0.9c-0.5,0.7-0.7,1.5-0.7,2.4v1
	c0,0.8,0.2,1.7,0.7,2.4c0.4,0.6,1.1,0.9,1.8,0.9c0.6,0,1.2-0.1,1.7-0.5c0.4-0.4,0.7-1,0.7-1.6L82.1,7.5z"/>
<path class="st0" d="M89.5,2.2h-2.9v7.9h-0.7V2.2h-2.9V1.6h6.6L89.5,2.2z"/>
<path class="st0" d="M64.1,19.2h-2.5v3.6h-0.7v-8.5h2.8c0.8,0,1.5,0.2,2.1,0.7c0.9,0.9,1,2.3,0.3,3.3c-0.3,0.4-0.8,0.7-1.3,0.9
	l2.1,3.6v0.1h-0.8L64.1,19.2z M61.6,18.6h2.2c0.5,0,1.1-0.2,1.5-0.5c0.7-0.8,0.7-2,0-2.7c-0.5-0.4-1-0.5-1.6-0.5h-2V18.6z"/>
<path class="st0" d="M73.2,18.7h-4v3.5h4.6v0.6h-5.3v-8.5h5.3v0.6h-4.6v3.2h4L73.2,18.7z"/>
<path class="st0" d="M76,19.3v3.5h-0.7v-8.5h2.9c0.8,0,1.5,0.2,2.1,0.7c0.5,0.5,0.8,1.2,0.8,1.9c0,0.7-0.2,1.4-0.7,1.9
	c-0.6,0.5-1.4,0.7-2.1,0.7L76,19.3z M76,18.7h2.2c0.6,0,1.1-0.1,1.6-0.5c0.4-0.4,0.6-0.9,0.6-1.4c0-0.5-0.2-1-0.5-1.4
	c-0.4-0.4-1-0.6-1.6-0.5H76V18.7z"/>
<path class="st0" d="M89,19c0,0.7-0.1,1.4-0.4,2.1c-0.2,0.6-0.6,1-1.2,1.4c-0.5,0.3-1.1,0.5-1.7,0.5c-0.9,0-1.8-0.4-2.4-1.1
	c-0.6-0.8-1-1.8-0.9-2.9v-0.9c0-0.7,0.1-1.4,0.4-2.1c0.5-1.2,1.6-1.9,2.9-1.9c0.6,0,1.2,0.2,1.7,0.5c0.5,0.3,0.9,0.8,1.2,1.3
	c0.3,0.6,0.4,1.3,0.4,2L89,19z M88.3,18.1c0.1-0.9-0.2-1.7-0.7-2.4c-0.9-1.1-2.5-1.2-3.5-0.3c-0.1,0.1-0.2,0.2-0.3,0.3
	c-0.5,0.7-0.8,1.6-0.7,2.4V19c0,0.9,0.2,1.7,0.7,2.4c0.9,1.1,2.5,1.2,3.5,0.3c0.1-0.1,0.2-0.2,0.3-0.3c0.5-0.7,0.7-1.6,0.7-2.4
	L88.3,18.1z"/>
<path class="st0" d="M94,19.2h-2.5v3.6h-0.7v-8.5h2.8c0.8,0,1.5,0.2,2.1,0.7c0.9,0.9,1,2.3,0.3,3.3c-0.3,0.4-0.8,0.7-1.3,0.9
	l2.1,3.6v0.1h-0.8L94,19.2z M91.5,18.6h2.2c0.5,0,1.1-0.2,1.5-0.5c0.7-0.8,0.7-2,0-2.7c-0.5-0.4-1-0.5-1.6-0.5h-2V18.6z"/>
<path class="st0" d="M103.8,14.9h-2.9v7.9h-0.7v-7.9h-2.9v-0.6h6.6L103.8,14.9z"/>
<path class="st0" d="M109.9,18.7h-4v3.5h4.6v0.6h-5.3v-8.5h5.3v0.6h-4.6v3.2h4V18.7z"/>
<path class="st0" d="M115.2,19.2h-2.5v3.6H112v-8.5h2.8c0.8,0,1.5,0.2,2.1,0.7c0.9,0.9,1,2.3,0.3,3.3c-0.3,0.4-0.8,0.7-1.3,0.9
	l2.1,3.6v0.1h-0.8L115.2,19.2z M112.7,18.6h2.2c0.5,0,1.1-0.2,1.5-0.5c0.7-0.8,0.7-2,0-2.7c-0.5-0.4-1-0.5-1.6-0.5h-2V18.6z"/>
</svg>
