<svg id="Layer_1" data-name="Layer 1" xmlns="http://www.w3.org/2000/svg" viewBox="0 0 117.9863 22.9014"><path d="M19.3442,19.4556a7.9786,7.9786,0,0,1-2.66,5.3764,8.91,8.91,0,0,1-5.9517,1.8931,8.1246,8.1246,0,0,1-6.4507-2.79,10.98,10.98,0,0,1-2.4258-7.4659V14.3579A12.1608,12.1608,0,0,1,2.9873,8.9736,8.2573,8.2573,0,0,1,6.1934,5.4072,9.1587,9.1587,0,0,1,10.998,4.1626a8.3841,8.3841,0,0,1,5.8038,1.9531,8.0655,8.0655,0,0,1,2.5424,5.4068H16.3335A6.2143,6.2143,0,0,0,14.6411,7.71a5.2332,5.2332,0,0,0-3.6431-1.18,5.4284,5.4284,0,0,0-4.5,2.0527,9.1944,9.1944,0,0,0-1.63,5.8413v2.1284a9.4483,9.4483,0,0,0,1.5444,5.6909,5.0459,5.0459,0,0,0,4.3213,2.1128,5.9017,5.9017,0,0,0,3.83-1.0932,5.9838,5.9838,0,0,0,1.7705-3.8081Z" transform="translate(-1.8564 -4.1626)"/><path d="M40.14,19.4556a7.9786,7.9786,0,0,1-2.66,5.3764,8.91,8.91,0,0,1-5.9517,1.8931,8.1246,8.1246,0,0,1-6.4507-2.79,10.98,10.98,0,0,1-2.4257-7.4659V14.3579a12.1608,12.1608,0,0,1,1.1308-5.3843,8.2573,8.2573,0,0,1,3.2061-3.5664,9.1588,9.1588,0,0,1,4.8047-1.2446,8.384,8.384,0,0,1,5.8037,1.9531A8.0655,8.0655,0,0,1,40.14,11.5225H37.1289A6.2143,6.2143,0,0,0,35.4365,7.71a5.2331,5.2331,0,0,0-3.643-1.18A5.4285,5.4285,0,0,0,27.293,8.5835a9.195,9.195,0,0,0-1.63,5.8413v2.1284a9.4483,9.4483,0,0,0,1.5444,5.6909,5.0459,5.0459,0,0,0,4.3213,2.1128,5.9017,5.9017,0,0,0,3.83-1.0932,5.9833,5.9833,0,0,0,1.77-3.8081Z" transform="translate(-1.8564 -4.1626)"/><path d="M56.7539,16.7256H47.2227v9.6977H44.2271V4.4644H58.2988V6.832H47.2227v7.5259h9.5312Z" transform="translate(-1.8564 -4.1626)"/><path d="M67.917,11.88H64.0439l-.8789,2.3965h-.7558l3.2285-8.5313h.6855l3.2286,8.5313h-.75Zm-3.65-.6094h3.4219l-1.711-4.6465Z" transform="translate(-1.8564 -4.1626)"/><path d="M75.6338,12.1792a1.3808,1.3808,0,0,0-.4981-1.1221,5.2577,5.2577,0,0,0-1.8222-.7851A6.3865,6.3865,0,0,1,71.38,9.46a1.9682,1.9682,0,0,1-.0615-3.22,3.3085,3.3085,0,0,1,2.06-.6123,3.4167,3.4167,0,0,1,1.52.3281,2.4888,2.4888,0,0,1,1.04.9141,2.4009,2.4009,0,0,1,.3691,1.3066h-.7265A1.7917,1.7917,0,0,0,74.9834,6.77a2.327,2.327,0,0,0-1.6055-.5322,2.5259,2.5259,0,0,0-1.5586.4375,1.3636,1.3636,0,0,0-.58,1.1416,1.29,1.29,0,0,0,.5214,1.0615,4.8356,4.8356,0,0,0,1.67.7256,7.8359,7.8359,0,0,1,1.74.65,2.48,2.48,0,0,1,.8906.8057,2.0158,2.0158,0,0,1,.2989,1.1074,1.9284,1.9284,0,0,1-.8057,1.6172,3.4315,3.4315,0,0,1-2.124.6093,4.164,4.164,0,0,1-1.6553-.3222,2.5283,2.5283,0,0,1-1.1426-.9024,2.3289,2.3289,0,0,1-.39-1.33h.7207a1.7033,1.7033,0,0,0,.6738,1.4238,2.8524,2.8524,0,0,0,1.793.5215,2.6577,2.6577,0,0,0,1.6-.44A1.3739,1.3739,0,0,0,75.6338,12.1792Z" transform="translate(-1.8564 -4.1626)"/><path d="M83.9541,11.6167a3.0577,3.0577,0,0,1-.9639,2.0625,3.1881,3.1881,0,0,1-2.1767.7148,3.0091,3.0091,0,0,1-1.6787-.4746,3.0946,3.0946,0,0,1-1.128-1.3447,4.7909,4.7909,0,0,1-.4043-1.9893V9.478a4.8344,4.8344,0,0,1,.3985-2.0156A3.0636,3.0636,0,0,1,79.1465,6.106a3.1229,3.1229,0,0,1,1.72-.4776,3.0539,3.0539,0,0,1,2.165.7383,3.0927,3.0927,0,0,1,.9229,2.0449h-.7266a2.1714,2.1714,0,0,0-2.3613-2.1738,2.2366,2.2366,0,0,0-1.8486.8682,3.7624,3.7624,0,0,0-.6885,2.3984v1.043A3.79,3.79,0,0,0,79,12.9048a2.16,2.16,0,0,0,1.8135.88,2.3993,2.3993,0,0,0,1.7051-.542,2.5975,2.5975,0,0,0,.7089-1.626Z" transform="translate(-1.8564 -4.1626)"/><path d="M91.3252,6.355H88.4014v7.9219h-.7207V6.355h-2.918V5.7456h6.5625Z" transform="translate(-1.8564 -4.1626)"/><path d="M65.9189,23.39H63.44v3.5567h-.7265V18.4155h2.7715a3.1659,3.1659,0,0,1,2.1328.6612,2.5246,2.5246,0,0,1,.2871,3.2949,2.4551,2.4551,0,0,1-1.2891.8662l2.1328,3.6328v.0762h-.7676ZM63.44,22.7808h2.209a2.0449,2.0449,0,0,0,1.459-.5166,1.95,1.95,0,0,0-.0234-2.74,2.3774,2.3774,0,0,0-1.6114-.499H63.44Z" transform="translate(-1.8564 -4.1626)"/><path d="M75.06,22.8569h-3.99v3.48h4.5879v.6094H70.3486V18.4155h5.2793v.6094H71.0693v3.2227h3.99Z" transform="translate(-1.8564 -4.1626)"/><path d="M77.8955,23.4722v3.4746h-.7207V18.4155h2.9063a3.0633,3.0633,0,0,1,2.1.68,2.3635,2.3635,0,0,1,.77,1.8692,2.3409,2.3409,0,0,1-.7412,1.8544,3.1509,3.1509,0,0,1-2.1474.6534Zm0-.6094h2.1856a2.3039,2.3039,0,0,0,1.6-.499,1.78,1.78,0,0,0,.5507-1.3907,1.8624,1.8624,0,0,0-.5478-1.4111,2.1954,2.1954,0,0,0-1.5557-.5371H77.8955Z" transform="translate(-1.8564 -4.1626)"/><path d="M90.8682,23.144a4.9287,4.9287,0,0,1-.4073,2.0684,3.1066,3.1066,0,0,1-1.163,1.3711,3.1849,3.1849,0,0,1-1.7461.48,3.0306,3.0306,0,0,1-2.4141-1.0694,4.2751,4.2751,0,0,1-.92-2.8857V22.23a4.8984,4.8984,0,0,1,.4131-2.0654A3.0691,3.0691,0,0,1,87.54,18.2983a3.1882,3.1882,0,0,1,1.7373.4746A3.118,3.118,0,0,1,90.44,20.1147a4.83,4.83,0,0,1,.4278,2.01Zm-.7207-.9257a3.7707,3.7707,0,0,0-.6973-2.4141,2.5076,2.5076,0,0,0-3.8057.0029,3.8007,3.8007,0,0,0-.706,2.4463v.8906a3.7707,3.7707,0,0,0,.7031,2.4053,2.51,2.51,0,0,0,3.82.0117,3.8706,3.8706,0,0,0,.6856-2.44Z" transform="translate(-1.8564 -4.1626)"/><path d="M95.8721,23.39H93.3936v3.5567H92.667V18.4155h2.7715a3.1658,3.1658,0,0,1,2.1328.6612,2.5243,2.5243,0,0,1,.2871,3.2949,2.4551,2.4551,0,0,1-1.2891.8662l2.1328,3.6328v.0762h-.7675Zm-2.4785-.6093h2.2089a2.0449,2.0449,0,0,0,1.459-.5166,1.95,1.95,0,0,0-.0234-2.74,2.377,2.377,0,0,0-1.6113-.499H93.3936Z" transform="translate(-1.8564 -4.1626)"/><path d="M105.6221,19.0249h-2.9239v7.9219h-.7207V19.0249H99.06v-.6094h6.5625Z" transform="translate(-1.8564 -4.1626)"/><path d="M111.71,22.8569h-3.99v3.48h4.5879v.6094H106.999V18.4155h5.2793v.6094H107.72v3.2227h3.99Z" transform="translate(-1.8564 -4.1626)"/><path d="M117.0127,23.39h-2.4785v3.5567h-.7266V18.4155h2.7715a3.1656,3.1656,0,0,1,2.1328.6612,2.5243,2.5243,0,0,1,.2871,3.2949,2.4552,2.4552,0,0,1-1.289.8662l2.1328,3.6328v.0762h-.7676Zm-2.4785-.6093h2.209a2.0447,2.0447,0,0,0,1.4589-.5166,1.95,1.95,0,0,0-.0234-2.74,2.377,2.377,0,0,0-1.6113-.499h-2.0332Z" transform="translate(-1.8564 -4.1626)"/></svg>