<svg xmlns="http://www.w3.org/2000/svg" width="424" height="367" viewBox="0 0 424 367">
  <g id="Group_96" data-name="Group 96" transform="translate(-387 -357)">
    <circle id="Ellipse_6" data-name="Ellipse 6" cx="13" cy="13" r="13" transform="translate(493 507)" fill="#4eaf4a"/>
    <circle id="Ellipse_7" data-name="Ellipse 7" cx="13" cy="13" r="13" transform="translate(606 416)" fill="#e41b1b"/>
    <circle id="Ellipse_8" data-name="Ellipse 8" cx="13" cy="13" r="13" transform="translate(519 422)" fill="#387eb8"/>
    <circle id="Ellipse_9" data-name="Ellipse 9" cx="13" cy="13" r="13" transform="translate(580 596)" fill="#4eaf4a"/>
    <circle id="Ellipse_10" data-name="Ellipse 10" cx="13" cy="13" r="13" transform="translate(667 605)" fill="#e41b1b"/>
    <circle id="Ellipse_11" data-name="Ellipse 11" cx="13" cy="13" r="13" transform="translate(519 656)" fill="#387eb8"/>
    <circle id="Ellipse_12" data-name="Ellipse 12" cx="13" cy="13" r="13" transform="translate(715 483)" fill="#4eaf4a"/>
    <circle id="Ellipse_13" data-name="Ellipse 13" cx="13" cy="13" r="13" transform="translate(654 481)" fill="#e41b1b"/>
    <circle id="Ellipse_14" data-name="Ellipse 14" cx="13" cy="13" r="13" transform="translate(654 543)" fill="#387eb8"/>
    <circle id="Ellipse_15" data-name="Ellipse 15" cx="13" cy="13" r="13" transform="translate(506 582)" fill="#4eaf4a"/>
    <circle id="Ellipse_16" data-name="Ellipse 16" cx="13" cy="13" r="13" transform="translate(580 522)" fill="#e41b1b"/>
    <circle id="Ellipse_17" data-name="Ellipse 17" cx="13" cy="13" r="13" transform="translate(426 569)" fill="#387eb8"/>
    <circle id="Ellipse_18" data-name="Ellipse 18" cx="13" cy="13" r="13" transform="translate(741 556)" fill="#4eaf4a"/>
    <circle id="Ellipse_19" data-name="Ellipse 19" cx="13" cy="13" r="13" transform="translate(615 654)" fill="#e41b1b"/>
    <circle id="Ellipse_20" data-name="Ellipse 20" cx="13" cy="13" r="13" transform="translate(689 383)" fill="#387eb8"/>
    <circle id="Ellipse_21" data-name="Ellipse 21" cx="13" cy="13" r="13" transform="translate(439 455)" fill="#387eb8"/>
    <circle id="Ellipse_22" data-name="Ellipse 22" cx="13" cy="13" r="13" transform="translate(465 390)" fill="#387eb8"/>
    <circle id="Ellipse_23" data-name="Ellipse 23" cx="13" cy="13" r="13" transform="translate(554 357)" fill="#387eb8"/>
    <circle id="Ellipse_24" data-name="Ellipse 24" cx="13" cy="13" r="13" transform="translate(452 643)" fill="#4eaf4a"/>
    <circle id="Ellipse_25" data-name="Ellipse 25" cx="13" cy="13" r="13" transform="translate(387 507)" fill="#4eaf4a"/>
    <circle id="Ellipse_26" data-name="Ellipse 26" cx="13" cy="13" r="13" transform="translate(641 357)" fill="#4eaf4a"/>
    <circle id="Ellipse_27" data-name="Ellipse 27" cx="13" cy="13" r="13" transform="translate(555 470)" fill="#4eaf4a"/>
    <circle id="Ellipse_28" data-name="Ellipse 28" cx="13" cy="13" r="13" transform="translate(697 667)" fill="#4eaf4a"/>
    <circle id="Ellipse_29" data-name="Ellipse 29" cx="13" cy="13" r="13" transform="translate(580 698)" fill="#4eaf4a"/>
    <circle id="Ellipse_30" data-name="Ellipse 30" cx="13" cy="13" r="13" transform="translate(754 429)" fill="#4eaf4a"/>
    <circle id="Ellipse_31" data-name="Ellipse 31" cx="13" cy="13" r="13" transform="translate(785 522)" fill="#387eb8"/>
    <circle id="Ellipse_32" data-name="Ellipse 32" cx="13" cy="13" r="13" transform="translate(754 628)" fill="#387eb8"/>
  </g>
</svg>
