<svg xmlns="http://www.w3.org/2000/svg" width="540" height="40" viewBox="0 0 540 40">
  <g id="Group_125" data-name="Group 125" transform="translate(-9 -51.611)">
    <g id="Group_90" data-name="Group 90" transform="translate(9 58.197)">
      <path id="logo" d="M15.861.47V26.685H8.771V15.674H6.649V26.685H-.44V.47H6.649V9.845H8.771V.47ZM34.081,5.2V26.683H27.161l.119-1.785a4.672,4.672,0,0,1-1.743,1.631,5.054,5.054,0,0,1-2.383.543,5.533,5.533,0,0,1-2.542-.518,3.446,3.446,0,0,1-1.49-1.376,4.884,4.884,0,0,1-.6-1.789,36.6,36.6,0,0,1-.119-3.7V5.2h6.8V19.818a14.787,14.787,0,0,0,.159,2.979q.161.47.868.469.758,0,.9-.486a17.885,17.885,0,0,0,.143-3.126V5.2ZM36.724.47H43.8a19.352,19.352,0,0,1,5.077.5A5.02,5.02,0,0,1,51.66,3,8.847,8.847,0,0,1,52.721,7.93a5.149,5.149,0,0,1-.749,3.2,5.31,5.31,0,0,1-2.955,1.392A5.3,5.3,0,0,1,52.352,14.3a6.636,6.636,0,0,1,.876,3.8v2.43a9.314,9.314,0,0,1-.632,3.936,3.362,3.362,0,0,1-2.013,1.75,21.434,21.434,0,0,1-5.658.469h-8.2Zm7.089,4.485v5.829c.3-.011.539-.016.707-.016q1.043,0,1.33-.494a7.81,7.81,0,0,0,.286-2.825A4.39,4.39,0,0,0,45.9,5.725a1.114,1.114,0,0,0-.614-.624A5.637,5.637,0,0,0,43.814,4.955Zm0,9.91V22.2a3.123,3.123,0,0,0,1.912-.453,3.085,3.085,0,0,0,.413-1.992V17.31q0-1.684-.37-2.04A3.441,3.441,0,0,0,43.814,14.865ZM77.645.47V26.685h-6.2l-.008-17.7-2.468,17.7h-4.4l-2.6-17.293-.008,17.293h-6.2V.47h9.174q.409,2.364.842,5.574l1.007,6.669L68.421.472h9.224Zm15.1,0L96.8,26.685H89.554l-.38-4.711H86.638l-.426,4.711h-7.33L82.5.47ZM88.987,17.326q-.539-4.454-1.08-11.011-1.084,7.53-1.361,11.011ZM98,.47h7.14A17.443,17.443,0,0,1,109.6.907a5.044,5.044,0,0,1,2.341,1.262,4.261,4.261,0,0,1,1.061,2,17.245,17.245,0,0,1,.278,3.636v2.282a9.184,9.184,0,0,1-.539,3.66,3.627,3.627,0,0,1-1.979,1.764,9.679,9.679,0,0,1-3.764.616h-1.9V26.685H98Zm7.089,4.485v6.67c.2.011.375.016.521.016a1.675,1.675,0,0,0,1.355-.461,3.29,3.29,0,0,0,.379-1.919V7.109a2.448,2.448,0,0,0-.439-1.748A2.809,2.809,0,0,0,105.093,4.955Z" transform="translate(0.44 -0.47)" fill="#f7f7f7"/>
    </g>
    <text id="CCF_ASCT_B_REPORTER" data-name="CCF ASCT+B REPORTER" transform="translate(139 83.611)" fill="#f7f7f7" font-size="33" font-family="Inter" font-weight="200" letter-spacing="0.06em"><tspan x="0" y="0">CCF ASCT+B REPORTER</tspan></text>
  </g>
</svg>
