<svg xmlns="http://www.w3.org/2000/svg" width="265.236" height="26.602" viewBox="0 0 265.236 26.602">
  <g id="Group_125" data-name="Group 125" transform="translate(-9 -58.197)">
    <g id="Group_90" data-name="Group 90" transform="translate(9 58.197)">
      <path id="logo" d="M15.861.47V26.685H8.771V15.674H6.649V26.685H-.44V.47H6.649V9.845H8.771V.47ZM34.081,5.2V26.683H27.161l.119-1.785a4.672,4.672,0,0,1-1.743,1.631,5.054,5.054,0,0,1-2.383.543,5.533,5.533,0,0,1-2.542-.518,3.446,3.446,0,0,1-1.49-1.376,4.884,4.884,0,0,1-.6-1.789,36.6,36.6,0,0,1-.119-3.7V5.2h6.8V19.818a14.787,14.787,0,0,0,.159,2.979q.161.47.868.469.758,0,.9-.486a17.885,17.885,0,0,0,.143-3.126V5.2ZM36.724.47H43.8a19.352,19.352,0,0,1,5.077.5A5.02,5.02,0,0,1,51.66,3,8.847,8.847,0,0,1,52.721,7.93a5.149,5.149,0,0,1-.749,3.2,5.31,5.31,0,0,1-2.955,1.392A5.3,5.3,0,0,1,52.352,14.3a6.636,6.636,0,0,1,.876,3.8v2.43a9.314,9.314,0,0,1-.632,3.936,3.362,3.362,0,0,1-2.013,1.75,21.434,21.434,0,0,1-5.658.469h-8.2Zm7.089,4.485v5.829c.3-.011.539-.016.707-.016q1.043,0,1.33-.494a7.81,7.81,0,0,0,.286-2.825A4.39,4.39,0,0,0,45.9,5.725a1.114,1.114,0,0,0-.614-.624A5.637,5.637,0,0,0,43.814,4.955Zm0,9.91V22.2a3.123,3.123,0,0,0,1.912-.453,3.085,3.085,0,0,0,.413-1.992V17.31q0-1.684-.37-2.04A3.441,3.441,0,0,0,43.814,14.865ZM77.645.47V26.685h-6.2l-.008-17.7-2.468,17.7h-4.4l-2.6-17.293-.008,17.293h-6.2V.47h9.174q.409,2.364.842,5.574l1.007,6.669L68.421.472h9.224Zm15.1,0L96.8,26.685H89.554l-.38-4.711H86.638l-.426,4.711h-7.33L82.5.47ZM88.987,17.326q-.539-4.454-1.08-11.011-1.084,7.53-1.361,11.011ZM98,.47h7.14A17.443,17.443,0,0,1,109.6.907a5.044,5.044,0,0,1,2.341,1.262,4.261,4.261,0,0,1,1.061,2,17.245,17.245,0,0,1,.278,3.636v2.282a9.184,9.184,0,0,1-.539,3.66,3.627,3.627,0,0,1-1.979,1.764,9.679,9.679,0,0,1-3.764.616h-1.9V26.685H98Zm7.089,4.485v6.67c.2.011.375.016.521.016a1.675,1.675,0,0,0,1.355-.461,3.29,3.29,0,0,0,.379-1.919V7.109a2.448,2.448,0,0,0-.439-1.748A2.809,2.809,0,0,0,105.093,4.955Z" transform="translate(0.44 -0.47)" fill="#404041"/>
    </g>
    <path id="Path_236" data-name="Path 236" d="M22.219-16.5H19.313a6.1,6.1,0,0,0-.9-2.2,6.216,6.216,0,0,0-1.547-1.6,6.719,6.719,0,0,0-2.01-.979,8,8,0,0,0-2.3-.328,7.292,7.292,0,0,0-3.943,1.1,7.608,7.608,0,0,0-2.8,3.246A12.021,12.021,0,0,0,4.781-12,12.021,12.021,0,0,0,5.818-6.738a7.608,7.608,0,0,0,2.8,3.246,7.292,7.292,0,0,0,3.943,1.1,8,8,0,0,0,2.3-.328,6.719,6.719,0,0,0,2.01-.979A6.179,6.179,0,0,0,18.416-5.3a6.16,6.16,0,0,0,.9-2.2h2.906a9.682,9.682,0,0,1-1.2,3.293A8.92,8.92,0,0,1,18.867-1.74,9.388,9.388,0,0,1,15.979-.2a10.843,10.843,0,0,1-3.416.527A10.058,10.058,0,0,1,7.1-1.172,10.292,10.292,0,0,1,3.34-5.437,14.623,14.623,0,0,1,1.969-12,14.623,14.623,0,0,1,3.34-18.562,10.292,10.292,0,0,1,7.1-22.828a10.058,10.058,0,0,1,5.461-1.5,10.843,10.843,0,0,1,3.416.527,9.388,9.388,0,0,1,2.889,1.541A8.951,8.951,0,0,1,21.023-19.8,9.623,9.623,0,0,1,22.219-16.5Zm25.98,0H45.292a6.1,6.1,0,0,0-.9-2.2,6.216,6.216,0,0,0-1.547-1.6,6.719,6.719,0,0,0-2.01-.979,8,8,0,0,0-2.3-.328,7.292,7.292,0,0,0-3.943,1.1,7.608,7.608,0,0,0-2.8,3.246A12.021,12.021,0,0,0,30.761-12,12.021,12.021,0,0,0,31.8-6.738a7.608,7.608,0,0,0,2.8,3.246,7.292,7.292,0,0,0,3.943,1.1,8,8,0,0,0,2.3-.328,6.719,6.719,0,0,0,2.01-.979A6.179,6.179,0,0,0,44.4-5.3a6.16,6.16,0,0,0,.9-2.2H48.2A9.682,9.682,0,0,1,47-4.207,8.92,8.92,0,0,1,44.847-1.74,9.388,9.388,0,0,1,41.959-.2a10.843,10.843,0,0,1-3.416.527,10.058,10.058,0,0,1-5.461-1.5A10.292,10.292,0,0,1,29.32-5.437,14.623,14.623,0,0,1,27.949-12a14.623,14.623,0,0,1,1.371-6.562,10.292,10.292,0,0,1,3.762-4.266,10.058,10.058,0,0,1,5.461-1.5,10.843,10.843,0,0,1,3.416.527,9.388,9.388,0,0,1,2.889,1.541A8.951,8.951,0,0,1,47-19.8,9.623,9.623,0,0,1,48.2-16.5ZM54.866,0V-24H69.257v2.578H57.772v8.109H68.179v2.578H57.772V0Z" transform="translate(127 82.611)" fill="#404041"/>
    <path id="Path_237" data-name="Path 237" d="M1.27,0h-.9L3.8-9.455h.923L8.167,0h-.9L4.3-8.333H4.233ZM1.92-3.624h4.69v.776H1.92ZM15.7-7.091A1.718,1.718,0,0,0,15-8.347a2.512,2.512,0,0,0-1.556-.466,2.8,2.8,0,0,0-1.161.226,1.893,1.893,0,0,0-.785.626,1.527,1.527,0,0,0-.284.907,1.294,1.294,0,0,0,.162.656,1.549,1.549,0,0,0,.436.482,3.079,3.079,0,0,0,.609.344,5.625,5.625,0,0,0,.676.24l1,.286a7.051,7.051,0,0,1,.9.319,3.736,3.736,0,0,1,.829.487,2.261,2.261,0,0,1,.6.716,2.1,2.1,0,0,1,.229,1.013,2.448,2.448,0,0,1-.392,1.362,2.7,2.7,0,0,1-1.126.958,4.024,4.024,0,0,1-1.759.353,4.045,4.045,0,0,1-1.676-.321,2.706,2.706,0,0,1-1.117-.889,2.5,2.5,0,0,1-.457-1.316h.886a1.651,1.651,0,0,0,.369.946,2.022,2.022,0,0,0,.84.589,3.165,3.165,0,0,0,1.154.2,3.151,3.151,0,0,0,1.258-.238,2.071,2.071,0,0,0,.868-.665,1.626,1.626,0,0,0,.316-.995,1.286,1.286,0,0,0-.249-.806,1.947,1.947,0,0,0-.695-.547,6.244,6.244,0,0,0-1.032-.392L12.723-4.6A4.2,4.2,0,0,1,11-5.521a1.978,1.978,0,0,1-.614-1.5,2.268,2.268,0,0,1,.409-1.341,2.734,2.734,0,0,1,1.108-.9,3.682,3.682,0,0,1,1.572-.325,3.589,3.589,0,0,1,1.56.323,2.72,2.72,0,0,1,1.078.889,2.336,2.336,0,0,1,.427,1.286ZM26.932-6.5h-.868a2.749,2.749,0,0,0-.349-.9,2.823,2.823,0,0,0-.63-.722,2.86,2.86,0,0,0-.859-.48,3.077,3.077,0,0,0-1.039-.171,2.988,2.988,0,0,0-1.632.466,3.264,3.264,0,0,0-1.177,1.369,5,5,0,0,0-.441,2.209,5.01,5.01,0,0,0,.441,2.216,3.25,3.25,0,0,0,1.177,1.364,3,3,0,0,0,1.632.464,3.077,3.077,0,0,0,1.039-.171,2.888,2.888,0,0,0,.859-.478,2.773,2.773,0,0,0,.63-.722,2.774,2.774,0,0,0,.349-.9h.868A3.8,3.8,0,0,1,26.5-1.743a3.659,3.659,0,0,1-.8.981,3.643,3.643,0,0,1-1.119.656,3.954,3.954,0,0,1-1.39.235,3.8,3.8,0,0,1-2.114-.6,4.04,4.04,0,0,1-1.447-1.687A5.876,5.876,0,0,1,19.1-4.727,5.876,5.876,0,0,1,19.627-7.3a4.04,4.04,0,0,1,1.447-1.687,3.8,3.8,0,0,1,2.114-.6,3.99,3.99,0,0,1,1.39.233A3.583,3.583,0,0,1,25.7-8.7a3.707,3.707,0,0,1,.8.981A3.772,3.772,0,0,1,26.932-6.5Zm2.239-2.179v-.776h6.855v.776h-3V0h-.863V-8.679Zm11.2,6.888V-7.636h.789v5.844Zm-2.53-2.53v-.785H43.69v.785ZM47.036,0V-9.455h3.19a3.292,3.292,0,0,1,1.54.323,2.184,2.184,0,0,1,.926.882A2.576,2.576,0,0,1,53-6.98a2.351,2.351,0,0,1-.2,1.011,1.8,1.8,0,0,1-.54.679,2.228,2.228,0,0,1-.762.374v.074a1.8,1.8,0,0,1,.886.321,2.195,2.195,0,0,1,.706.806,2.586,2.586,0,0,1,.277,1.237A2.539,2.539,0,0,1,53.052-1.2a2.182,2.182,0,0,1-.976.882A3.816,3.816,0,0,1,50.4,0ZM47.9-.776h2.5A2.32,2.32,0,0,0,52.02-1.26a1.59,1.59,0,0,0,.524-1.219,1.89,1.89,0,0,0-.261-.981,1.88,1.88,0,0,0-.734-.7,2.281,2.281,0,0,0-1.11-.259H47.9Zm0-4.409H50.3a2,2,0,0,0,.979-.231,1.673,1.673,0,0,0,.656-.637,1.817,1.817,0,0,0,.235-.928,1.629,1.629,0,0,0-.489-1.226,2.022,2.022,0,0,0-1.459-.473H47.9ZM1.256,15V5.545H4.307a3.531,3.531,0,0,1,1.683.362,2.428,2.428,0,0,1,1.02,1,3.046,3.046,0,0,1,.344,1.466A3.005,3.005,0,0,1,7.01,9.834a2.4,2.4,0,0,1-1.018.988,3.552,3.552,0,0,1-1.671.355h-2.6v-.789H4.3a2.75,2.75,0,0,0,1.23-.245,1.629,1.629,0,0,0,.734-.7A2.237,2.237,0,0,0,6.5,8.375,2.288,2.288,0,0,0,6.26,7.293a1.678,1.678,0,0,0-.736-.718,2.688,2.688,0,0,0-1.24-.254H2.119V15Zm4.169-4.266L7.751,15h-1l-2.3-4.266ZM10.239,15V5.545h5.484v.776H11.1V9.88h4.33v.776H11.1v3.569h4.713V15Zm8.494,0V5.545h3.051a3.357,3.357,0,0,1,1.683.385,2.537,2.537,0,0,1,1.02,1.046,3.169,3.169,0,0,1,.344,1.487,3.2,3.2,0,0,1-.342,1.489A2.522,2.522,0,0,1,23.474,11a3.333,3.333,0,0,1-1.676.385H19.4V10.61h2.377a2.46,2.46,0,0,0,1.233-.279,1.786,1.786,0,0,0,.732-.764,2.434,2.434,0,0,0,.242-1.1,2.434,2.434,0,0,0-.242-1.1,1.769,1.769,0,0,0-.734-.762,2.511,2.511,0,0,0-1.244-.277H19.6V15Zm16.661-4.727a5.858,5.858,0,0,1-.526,2.569,4.059,4.059,0,0,1-1.447,1.69,4.046,4.046,0,0,1-4.233,0,4.044,4.044,0,0,1-1.445-1.69,5.88,5.88,0,0,1-.524-2.569A5.88,5.88,0,0,1,27.742,7.7a4.037,4.037,0,0,1,1.447-1.69,4.042,4.042,0,0,1,4.231,0A4.059,4.059,0,0,1,34.868,7.7,5.858,5.858,0,0,1,35.394,10.273Zm-.84,0A5.1,5.1,0,0,0,34.129,8.1,3.256,3.256,0,0,0,32.97,6.709a3.124,3.124,0,0,0-3.328,0,3.274,3.274,0,0,0-1.161,1.385,5.072,5.072,0,0,0-.427,2.179,5.083,5.083,0,0,0,.425,2.174,3.274,3.274,0,0,0,1.159,1.387,3.13,3.13,0,0,0,3.335,0,3.25,3.25,0,0,0,1.161-1.387A5.055,5.055,0,0,0,34.554,10.273ZM38.261,15V5.545h3.051a3.531,3.531,0,0,1,1.683.362,2.428,2.428,0,0,1,1.02,1,3.046,3.046,0,0,1,.344,1.466,3.005,3.005,0,0,1-.344,1.459A2.4,2.4,0,0,1,43,10.822a3.552,3.552,0,0,1-1.671.355h-2.6v-.789H41.3a2.75,2.75,0,0,0,1.23-.245,1.629,1.629,0,0,0,.734-.7,2.237,2.237,0,0,0,.242-1.071,2.288,2.288,0,0,0-.245-1.083,1.678,1.678,0,0,0-.736-.718,2.688,2.688,0,0,0-1.24-.254H39.124V15Zm4.169-4.266L44.756,15h-1l-2.3-4.266Zm4.242-4.413V5.545h6.855v.776h-3V15h-.863V6.321ZM56.246,15V5.545H61.73v.776H57.109V9.88h4.33v.776h-4.33v3.569h4.713V15Zm8.494,0V5.545h3.051a3.531,3.531,0,0,1,1.683.362,2.428,2.428,0,0,1,1.02,1,3.046,3.046,0,0,1,.344,1.466,3.005,3.005,0,0,1-.344,1.459,2.4,2.4,0,0,1-1.018.988,3.552,3.552,0,0,1-1.671.355h-2.6v-.789h2.576a2.75,2.75,0,0,0,1.23-.245,1.629,1.629,0,0,0,.734-.7,2.237,2.237,0,0,0,.242-1.071,2.288,2.288,0,0,0-.245-1.083,1.678,1.678,0,0,0-.736-.718,2.688,2.688,0,0,0-1.24-.254H65.6V15Zm4.169-4.266L71.236,15h-1l-2.3-4.266Z" transform="translate(203 69.611)" fill="#404041"/>
  </g>
</svg>
